<svg width="341" height="300" viewBox="0 0 341 300" fill="none" xmlns="http://www.w3.org/2000/svg">
<ellipse cx="192.227" cy="156.325" rx="40.1354" ry="40.0602" fill="#16A0AA"/>
<ellipse cx="188.003" cy="63.5543" rx="40.1354" ry="40.0602" fill="#16A0AA"/>
<ellipse cx="280.948" cy="76.8072" rx="40.1354" ry="40.0602" fill="#16A0AA"/>
<ellipse cx="300.865" cy="164.759" rx="40.1354" ry="40.0602" fill="#16A0AA"/>
<ellipse cx="99.2824" cy="48.494" rx="40.1354" ry="40.0602" fill="#16A0AA"/>
<ellipse cx="107.128" cy="122.59" rx="40.1354" ry="40.0602" fill="#16A0AA"/>
<ellipse cx="41.3424" cy="152.711" rx="40.1354" ry="40.0602" fill="#16A0AA"/>
<ellipse cx="124.631" cy="220.783" rx="40.1354" ry="40.0602" fill="#16A0AA"/>
<ellipse cx="244.132" cy="249.096" rx="40.1354" ry="40.0603" fill="#16A0AA"/>
<path d="M109.026 51.1734C109.08 50.8399 109.386 50.6071 109.722 50.6431L142.176 54.1261L174.059 61.1117C174.389 61.184 174.605 61.5018 174.55 61.8352C174.496 62.1687 174.19 62.4016 173.854 62.3655L141.399 58.8826L109.517 51.8969C109.187 51.8246 108.971 51.5069 109.026 51.1734Z" fill="#65C1C8"/>
<path d="M191.21 143.408C190.872 143.426 190.578 143.177 190.542 142.84L187.043 110.45L187.094 77.8713C187.094 77.5328 187.359 77.2538 187.697 77.2359C188.035 77.218 188.329 77.4675 188.365 77.8041L191.864 110.195L191.813 142.773C191.813 143.111 191.548 143.39 191.21 143.408Z" fill="#65C1C8"/>
<path d="M105.606 111.395C105.269 111.44 104.954 111.217 104.886 110.884L99.77 85.9959L98.1603 60.6402C98.1388 60.301 98.3834 60.0031 98.7203 59.9581C99.0572 59.9132 99.3716 60.1366 99.4401 60.4695L104.556 85.3577L106.166 110.713C106.187 111.053 105.942 111.351 105.606 111.395Z" fill="#65C1C8"/>
<path d="M287.238 162.368C287.216 162.704 286.933 162.963 286.596 162.956L247.028 162.144L207.693 157.779C207.358 157.742 207.112 157.448 207.134 157.112C207.156 156.776 207.439 156.516 207.776 156.523L247.345 157.335L286.679 161.7C287.014 161.737 287.26 162.031 287.238 162.368Z" fill="#65C1C8"/>
<path d="M115.043 212.879C114.826 213.138 114.444 213.181 114.176 212.976L82.6994 189.032L53.5107 162.356C53.2618 162.129 53.2363 161.746 53.4528 161.487C53.6694 161.229 54.0514 161.186 54.3198 161.39L85.7962 185.335L114.985 212.01C115.234 212.238 115.259 212.621 115.043 212.879Z" fill="#65C1C8"/>
<path d="M237.731 241.181C237.432 241.339 237.062 241.235 236.89 240.944L216.78 206.924L199.819 171.234C199.674 170.929 199.795 170.565 200.093 170.407C200.392 170.249 200.762 170.353 200.934 170.644L221.044 204.664L238.005 240.354C238.15 240.659 238.029 241.023 237.731 241.181Z" fill="#65C1C8"/>
<path d="M133.225 210.393C132.993 210.147 132.995 209.763 133.228 209.519L155.759 185.945L180.724 164.958C180.983 164.74 181.367 164.763 181.599 165.009C181.831 165.255 181.83 165.639 181.596 165.884L159.066 189.457L134.1 210.444C133.841 210.662 133.457 210.64 133.225 210.393Z" fill="#65C1C8"/>
<path d="M117.426 123.905C117.559 123.594 117.911 123.44 118.229 123.555L148.927 134.629L178.235 148.971C178.539 149.119 178.673 149.479 178.541 149.79C178.409 150.101 178.056 150.255 177.738 150.14L147.041 139.066L117.732 124.724C117.428 124.576 117.294 124.216 117.426 123.905Z" fill="#65C1C8"/>
<path d="M265.9 74.9772C265.856 75.3121 265.557 75.5539 265.22 75.5277L232.677 72.9993L200.602 66.9528C200.27 66.8903 200.045 66.579 200.09 66.2441C200.135 65.9092 200.433 65.6674 200.77 65.6936L233.313 68.222L265.388 74.2685C265.72 74.3311 265.945 74.6423 265.9 74.9772Z" fill="#65C1C8"/>
<path d="M282.998 89.0984C283.328 89.0221 283.66 89.2169 283.754 89.5419L292.847 120.831L298.476 152.921C298.535 153.254 298.322 153.575 297.992 153.651C297.663 153.728 297.331 153.533 297.236 153.208L288.143 121.919L282.514 89.8289C282.456 89.4955 282.668 89.1748 282.998 89.0984Z" fill="#65C1C8"/>
<path d="M190.161 59.3827L191.738 62.2284L192.801 65.3027L190.577 67.6796L187.976 69.6388L185.024 68.2621L182.354 66.3987L182.753 63.1709L183.704 60.0601L186.903 59.4419L190.161 59.3827Z" fill="#65C1C8"/>
<path d="M126.789 214.804L128.366 217.65L129.429 220.724L127.205 223.101L124.605 225.061L121.653 223.684L118.982 221.82L119.382 218.593L120.332 215.482L123.531 214.864L126.789 214.804Z" fill="#65C1C8"/>
<path d="M248.183 246.732L248.27 249.983L247.794 253.2L244.723 254.287L241.51 254.83L239.526 252.25L238.016 249.368L239.86 246.687L242.14 244.363L245.264 245.286L248.183 246.732Z" fill="#65C1C8"/>
<path d="M276.329 72.1355L280.139 73.0292L283.738 74.5645L284.064 78.4578L283.714 82.349L280.105 83.8614L276.289 84.7311L273.732 81.7725L271.724 78.4188L273.753 75.0779L276.329 72.1355Z" fill="#65C1C8"/>
<path d="M184.183 156.584L186.691 152.658L189.838 149.222L194.354 150.389L198.601 152.315L198.884 156.962L198.361 161.589L194.021 163.293L189.451 164.227L186.485 160.633L184.183 156.584Z" fill="#65C1C8"/>
<path d="M35.1093 154.174L37.6168 150.249L40.7641 146.812L45.2796 147.98L49.5263 149.905L49.8095 154.553L49.2868 159.179L44.9463 160.884L40.3766 161.817L37.4108 158.224L35.1093 154.174Z" fill="#65C1C8"/>
<path d="M297.047 157.654L300.86 157.606L304.625 158.215L305.848 161.82L306.432 165.582L303.375 167.857L299.971 169.574L296.858 167.375L294.171 164.674L295.304 161.039L297.047 157.654Z" fill="#65C1C8"/>
<path d="M94.6717 45.7575L97.8624 45.7178L101.012 46.2271L102.036 49.2438L102.524 52.3913L99.9663 54.2954L97.118 55.7314L94.5133 53.8916L92.2648 51.6315L93.213 48.5903L94.6717 45.7575Z" fill="#65C1C8"/>
<path d="M103.725 115.637L106.916 115.597L110.066 116.107L111.089 119.123L111.578 122.271L109.02 124.175L106.171 125.611L103.566 123.771L101.318 121.511L102.266 118.47L103.725 115.637Z" fill="#65C1C8"/>
</svg>
