<svg width="21" height="21" viewBox="0 0 21 21" fill="none" xmlns="http://www.w3.org/2000/svg">
<path d="M6.84523 0.76001C3.46782 0.76001 0.719971 3.38838 0.719971 6.61896V14.2611C0.719971 17.4916 3.46782 20.12 6.84523 20.12H14.8347C18.2121 20.12 20.96 17.4916 20.96 14.2611V6.61896C20.96 3.38838 18.2121 0.76001 14.8347 0.76001H6.84523ZM16.1663 4.32633C16.7548 4.32633 17.2316 4.7823 17.2316 5.34527C17.2316 5.90773 16.7548 6.36422 16.1663 6.36422C15.5777 6.36422 15.101 5.90773 15.101 5.34527C15.101 4.7823 15.5777 4.32633 16.1663 4.32633ZM10.84 5.34527C13.7769 5.34527 16.1663 7.63077 16.1663 10.44C16.1663 13.2492 13.7769 15.5347 10.84 15.5347C7.90304 15.5347 5.51366 13.2492 5.51366 10.44C5.51366 7.63077 7.90304 5.34527 10.84 5.34527ZM10.84 6.87369C10.3503 6.87369 9.86552 6.96594 9.41317 7.14516C8.96081 7.32439 8.5498 7.58708 8.20358 7.91824C7.85736 8.24941 7.58273 8.64255 7.39536 9.07524C7.20799 9.50793 7.11155 9.97167 7.11155 10.44C7.11155 10.9083 7.20799 11.3721 7.39536 11.8048C7.58273 12.2375 7.85736 12.6306 8.20358 12.9618C8.5498 13.2929 8.96081 13.5556 9.41317 13.7349C9.86552 13.9141 10.3503 14.0063 10.84 14.0063C11.3296 14.0063 11.8144 13.9141 12.2668 13.7349C12.7191 13.5556 13.1301 13.2929 13.4764 12.9618C13.8226 12.6306 14.0972 12.2375 14.2846 11.8048C14.472 11.3721 14.5684 10.9083 14.5684 10.44C14.5684 9.97167 14.472 9.50793 14.2846 9.07524C14.0972 8.64255 13.8226 8.24941 13.4764 7.91824C13.1301 7.58708 12.7191 7.32439 12.2668 7.14516C11.8144 6.96594 11.3296 6.87369 10.84 6.87369Z" fill="#16A0AA"/>
</svg>
