<svg width="19" height="19" viewBox="0 0 19 19" fill="none" xmlns="http://www.w3.org/2000/svg">
<path d="M18 18L12.3333 12.3333L18 18ZM14.2222 7.61111C14.2222 8.47929 14.0512 9.33898 13.719 10.1411C13.3867 10.9432 12.8998 11.672 12.2859 12.2859C11.672 12.8998 10.9432 13.3867 10.1411 13.719C9.33898 14.0512 8.47929 14.2222 7.61111 14.2222C6.74293 14.2222 5.88325 14.0512 5.08115 13.719C4.27905 13.3867 3.55025 12.8998 2.93635 12.2859C2.32245 11.672 1.83548 10.9432 1.50324 10.1411C1.171 9.33898 1 8.47929 1 7.61111C1 5.85774 1.69653 4.17617 2.93635 2.93635C4.17617 1.69653 5.85774 1 7.61111 1C9.36449 1 11.046 1.69653 12.2859 2.93635C13.5257 4.17617 14.2222 5.85774 14.2222 7.61111Z" stroke="#424952" stroke-width="2" stroke-linecap="round"/>
</svg>
