<svg width="23" height="21" viewBox="0 0 23 21" fill="none" xmlns="http://www.w3.org/2000/svg">
<path d="M22.1046 1.02615C21.7293 0.718328 21.1399 0.674284 20.5304 0.910961H20.5294C19.8885 1.15974 2.38578 8.4217 1.67326 8.71839C1.54367 8.76195 0.411846 9.17045 0.52843 10.0804C0.632506 10.9008 1.54217 11.2405 1.65325 11.2797L6.10297 12.7535C6.39819 13.7041 7.48648 17.2112 7.72715 17.9604C7.87726 18.4275 8.12194 19.0412 8.55075 19.1675C8.92702 19.3079 9.30129 19.1796 9.54347 18.9957L12.2639 16.5549L16.6556 19.8678L16.7602 19.9283C17.0584 20.0561 17.3441 20.12 17.6168 20.12C17.8275 20.12 18.0296 20.0818 18.2228 20.0053C18.8807 19.7439 19.1439 19.1375 19.1715 19.0688L22.4518 2.57544C22.652 1.69456 22.3738 1.24637 22.1046 1.02615ZM10.0273 13.343L8.52623 17.215L7.02514 12.375L18.5335 4.14699L10.0273 13.343Z" fill="#16A0AA"/>
</svg>
