<svg width="20" height="21" viewBox="0 0 20 21" fill="none" xmlns="http://www.w3.org/2000/svg">
<path d="M9.83991 0.76001C4.50139 0.76001 0.159912 5.10149 0.159912 10.44C0.159912 11.984 0.532592 13.5086 1.23923 14.8783L0.203472 18.5857C0.0873122 19.0068 0.208312 19.4569 0.513232 19.7667C0.745552 19.9942 1.05531 20.12 1.36991 20.12C1.48123 20.12 1.58771 20.1055 1.69419 20.0765L5.40163 19.0407C6.77135 19.7473 8.30079 20.12 9.83991 20.12C15.1784 20.12 19.5199 15.7785 19.5199 10.44C19.5199 5.10149 15.1784 0.76001 9.83991 0.76001ZM14.8542 14.0071C14.6412 14.6024 13.5958 15.1784 13.1263 15.2219C12.6568 15.2655 12.2164 15.4349 10.0577 14.5831C7.45379 13.557 5.80819 10.8901 5.68235 10.7159C5.55167 10.5465 4.63691 9.33165 4.63691 8.06841C4.63691 6.81001 5.29999 6.19049 5.53231 5.93397C5.76947 5.67745 6.04535 5.61453 6.21475 5.61453C6.38899 5.61453 6.55839 5.61453 6.70843 5.61937C6.88751 5.62905 7.09079 5.63873 7.28439 6.06465C7.51187 6.56801 8.01039 7.83609 8.07331 7.96677C8.13623 8.09261 8.17979 8.24265 8.09267 8.41205C8.01039 8.58145 7.96683 8.68793 7.83615 8.83797C7.71031 8.98801 7.56995 9.17193 7.45379 9.28809C7.32795 9.41393 7.19243 9.55429 7.34247 9.81081C7.49251 10.0673 8.00555 10.9047 8.76543 11.5823C9.74311 12.4535 10.5659 12.7245 10.8224 12.8552C11.079 12.981 11.229 12.9617 11.379 12.7874C11.5291 12.618 12.0179 12.0421 12.1922 11.7855C12.3616 11.529 12.531 11.5726 12.7681 11.6597C13.0004 11.742 14.2588 12.3615 14.5154 12.4922C14.7719 12.618 14.9413 12.6809 15.0042 12.7874C15.0671 12.8939 15.0671 13.4069 14.8542 14.0071Z" fill="#16A0AA"/>
</svg>
